<svg width="20" height="20" xmlns="http://www.w3.org/2000/svg">
 <g id="Layer_1">
  <title>Layer 1</title>
  <g stroke="null">
   <path stroke="null" fill="#1274FF" d="m17.88974,17.84433c1.34091,-1.35162 2.04161,-3.13915 2.03164,-5.11326c-0.00447,-0.89007 -0.20561,-1.81808 -0.46689,-2.76118c-0.57859,2.08845 -1.76186,4.07698 -3.54701,5.87637c-1.78507,1.79934 -3.87488,3.35792 -5.94673,3.94114c0.77822,0.1534 2.02325,0.1534 2.1789,0.1534c1.71198,0 4.27847,-0.61308 5.7501,-2.09647z" clip-rule="evenodd" fill-rule="evenodd"/>
   <path stroke="null" fill="#2994FF" d="m19.45412,9.9699c0.25615,-0.92464 0.45746,-1.85666 0.46689,-2.76123c0.0215,-2.06431 -0.67894,-3.98553 -2.03159,-5.34905c-1.36778,-1.37878 -3.88221,-1.86063 -5.28287,-1.86063c-0.15562,0 -1.71201,0.00669 -2.64582,0.1534c2.0718,0.58323 4.16148,1.90595 5.94652,3.70534c1.78497,1.79934 2.96826,4.02377 3.54686,6.11217z"/>
   <path stroke="null" fill="#72C4FF" d="m0,9.9699c0,-5.50678 3.76514,-9.97091 8.34944,-9.97091c0.56857,0 1.07489,0.02261 1.6113,0.15341c-3.78877,0.92386 -6.6405,4.99368 -6.6405,9.81751c0,4.82385 2.85171,8.89367 6.6405,9.81751c-0.53638,0.1308 -1.04275,0.1534 -1.6113,0.1534c-4.58429,0 -8.34944,-4.46413 -8.34944,-9.97091z"/>
  </g>
 </g>

</svg>